<?xml version="1.0" encoding="utf-8"?>
<!DOCTYPE svg PUBLIC "-//W3C//DTD SVG 1.0//EN" "http://www.w3.org/TR/2001/REC-SVG-20010904/DTD/svg10.dtd">
<svg version="1.0" xmlns="http://www.w3.org/2000/svg" width="452px" height="365px" viewBox="0 0 452 365" preserveAspectRatio="xMidYMid meet">
 <g fill="#f61a1a">
  <path d="M200 338.4 c-24.6 -3.5 -47.8 -13 -67.6 -27.7 -7.9 -5.9 -21.4 -19 -26.5 -25.7 -1.8 -2.5 -3.6 -4.7 -3.9 -5 -2.3 -1.9 -12.4 -20.4 -16.2 -29.5 -4.7 -11.4 -5.5 -14 -8.5 -26.5 -2.6 -10.9 -2.6 -47.1 0 -58.5 2.4 -10.1 6.1 -21.2 9.8 -29.3 1.6 -3.5 2.9 -6.5 2.9 -6.8 0 -1 10.3 -17 14.7 -22.7 5.3 -7 17.2 -19.7 18.5 -19.7 0.4 0 0.8 1.6 0.8 3.6 0 2.9 -0.9 4.6 -5.3 9.2 -22.7 24.3 -33.3 47.7 -37.8 83.5 -2.3 17.6 1.8 44.4 9.6 63.2 13.2 31.9 38.9 59.4 68.4 73.1 12.8 6 19.8 8.4 29.6 10.4 3.3 0.6 7.9 1.6 10.3 2.1 4.5 1 37.5 1.4 39 0.5 0.5 -0.3 3.8 -1 7.4 -1.6 5.7 -0.9 18.2 -4.4 24.3 -6.8 5.3 -2.2 19.5 -9.5 24 -12.4 l5 -3.3 0.6 -8.5 c0.4 -4.7 0.6 -29.2 0.5 -54.5 l-0.1 -46 -18.3 -0.5 c-10 -0.3 -18.3 -0.9 -18.3 -1.3 -0.1 -0.4 0.1 -1.7 0.4 -2.7 0.5 -2 1.3 -2 21.4 -1.8 l20.8 0.3 0.3 58.8 0.2 58.7 -7.2 4.7 c-30.5 19.7 -64.6 27.6 -98.8 22.7z"/>
  <path d="M257.3 248 c-21.6 -3 -36.5 -15.8 -42.9 -36.9 -1.9 -6.3 -1.8 -26 0.1 -32.6 5.1 -17.2 17.2 -29.6 34 -34.7 8.3 -2.6 25.5 -3.1 32 -0.9 6.8 2.2 15.8 6.9 19.8 10.4 3.8 3.1 3.8 3.3 2 5 -1.8 1.6 -2.1 1.6 -5.4 -0.9 -9.1 -7 -23.9 -11.1 -35.4 -9.9 -18.8 2 -30.8 10.2 -38.3 26.4 -3.1 6.7 -3.6 8.8 -4 17.6 -0.5 10.9 1 19.2 5.1 27.5 3.1 6.4 12.1 15.1 18.9 18.3 6 2.8 17.7 5.7 23.2 5.7 3.9 0 17.2 -3.2 20.3 -4.9 3.1 -1.6 3.3 -1.4 3.3 1.8 0 3.6 -1.3 4.7 -8.1 6.5 -7.7 2 -17.3 2.6 -24.6 1.6z"/>
 </g>
 <g fill="#fbfbfc">
  <path d="M315 299 c0 -3.9 0.6 -4.9 6.3 -11 38.3 -40.5 47.3 -103.9 21.9 -154.5 -13.9 -27.8 -36.8 -50.4 -64.4 -63.5 -20.6 -9.8 -36.9 -13.4 -59.8 -13.3 -17.6 0 -27.1 1.5 -43.5 6.8 -10.1 3.3 -23.4 9.7 -32 15.4 l-4 2.7 -0.3 54.2 c-0.1 40.1 0.1 54.2 0.9 54.2 1.1 0 8.1 -6.4 38.8 -35.3 11.9 -11.2 12.6 -11.7 16.7 -11.7 l4.3 0 -8.7 8.3 c-4.8 4.6 -12.3 11.7 -16.7 15.8 -4.4 4.1 -12.3 11.6 -17.5 16.7 l-9.5 9.2 5.5 5.3 c3.1 2.8 15.8 14.9 28.4 26.7 l22.8 21.5 -4.1 0.3 c-4.1 0.3 -4.3 0.2 -23.8 -18 -32.2 -30 -35.3 -32.8 -36.3 -32.8 -0.6 0 -1 9.3 -1 25.5 l0 25.5 -3.2 0 -3.3 0 0.1 -81.8 c0.1 -44.9 0.2 -82.9 0.3 -84.4 0.1 -2.1 1.5 -3.5 7.4 -7.3 54.8 -35.3 126.9 -29.9 174.6 13.1 31.1 28 47.7 63.5 48.9 105 0.5 17.5 -1.6 31.6 -7.5 49.4 -6.9 21 -22.4 45.4 -37.5 58.9 l-3.8 3.3 0 -4.2z"/>
 </g>
</svg>