<?xml version="1.0" encoding="utf-8"?>
<!DOCTYPE svg PUBLIC "-//W3C//DTD SVG 1.0//EN" "http://www.w3.org/TR/2001/REC-SVG-20010904/DTD/svg10.dtd">
<svg version="1.0" xmlns="http://www.w3.org/2000/svg" width="1024px" height="1024px" viewBox="0 0 1024 1024" preserveAspectRatio="xMidYMid meet">
 <g fill="#ffffff">
  <path d="M0 512 l0 -512 512 0 512 0 0 512 0 512 -512 0 -512 0 0 -512z m820 -25 l0 -307.50 -143.75 0 -143.75 0 0 30.50 0 30.50 112.50 0 112.50 0 0 246 0 246 -245.60 -0.10 -245.65 -0.15 -0.05 -245.90 -0.05 -245.85 61.70 0 61.65 0 0 199.50 0 199.50 33 0 33 0 0 -56 0 -56 1.75 0 c1.60 0 4.95 3.20 57.85 56 l56.15 56 44.40 0 c42.10 0 44.35 -0.05 43.90 -0.85 -0.25 -0.50 -33.90 -34.25 -74.75 -75 -72.35 -72.15 -74.30 -74.15 -74.30 -76 0 -1.80 1.05 -2.95 32.20 -34.15 17.70 -17.75 32.85 -33.05 33.65 -34 0.75 -0.95 20.20 -20.60 43.15 -43.65 22.95 -23.05 41.85 -42 41.95 -42.15 0.10 -0.10 -18.40 -0.20 -41.10 -0.20 l-41.35 0 -15.55 15.75 c-8.60 8.65 -15.95 16.20 -16.35 16.80 -0.45 0.65 -9.45 9.85 -20.05 20.55 -10.60 10.70 -21.30 21.65 -23.80 24.30 -2.45 2.65 -13.35 13.80 -24.20 24.70 -19.10 19.25 -19.80 19.90 -21.65 19.90 l-1.90 0 0 -138 0 -138 -125.75 0 -125.75 0 0 307.50 0 307.50 308 0 308 0 0 -307.50z"/>
 </g>
 <g fill="#0078ff">
  <path d="M202.50 795.90 c0 -0.10 -0.05 -139.15 -0.15 -309.05 l-0.10 -308.85 127.40 0 127.35 0 0 138 c0 75.90 0.20 138 0.40 138 0.45 0 37.65 -37.40 44.35 -44.60 2.50 -2.65 13.20 -13.60 23.80 -24.30 10.60 -10.70 19.60 -19.90 20.05 -20.55 0.40 -0.60 7.75 -8.15 16.35 -16.80 l15.55 -15.75 44.05 0 c27.20 0 43.95 0.20 43.85 0.45 -0.05 0.30 -19.50 19.90 -43.15 43.65 -23.65 23.75 -43.65 43.95 -44.40 44.90 -0.80 0.95 -15.95 16.25 -33.65 34 -17.70 17.75 -32.20 32.45 -32.20 32.65 0 0.20 34.30 34.60 76.20 76.45 41.95 41.85 76.15 76.25 76 76.50 -0.15 0.20 -21.45 0.40 -47.35 0.40 l-47.10 0 -56.15 -56 c-30.85 -30.80 -56.25 -56 -56.35 -56 -0.15 0 -0.25 25.20 -0.25 56 l0 56 -34.50 0 -34.50 0 0 -199.50 0 -199.50 -60.10 0 -60.15 0 0 244.40 0 244.35 244.15 0.15 244.10 0.10 0 -244.50 0 -244.50 -112.50 0 -112.50 0 0 -32 0 -32 145.40 0 145.35 0 -0.10 308.85 -0.15 308.90 -309.50 0.15 c-170.20 0.05 -309.50 0.05 -309.50 0z"/>
 </g>
</svg>