<?xml version="1.0" encoding="utf-8"?>
<!DOCTYPE svg PUBLIC "-//W3C//DTD SVG 1.0//EN" "http://www.w3.org/TR/2001/REC-SVG-20010904/DTD/svg10.dtd">
<svg version="1.0" xmlns="http://www.w3.org/2000/svg" width="500px" height="500px" viewBox="0 0 500 500" preserveAspectRatio="xMidYMid meet">
 <g fill="#0077fe">
  <path d="M99.7 387.3 c-0.4 -0.3 -0.7 -67.8 -0.7 -150 l0 -149.3 61.5 0 61.5 0 0 66.4 c0 49.7 0.3 66.7 1.2 67.2 0.7 0.5 12 -10.4 30.2 -29 l29.1 -29.7 20.4 0.1 20.3 0 -36.3 36.5 c-20 20.1 -36.6 37.3 -36.8 38.2 -0.2 1 12.8 14.7 36 37.9 l36.4 36.4 -22 0 -22 0 -27 -27 c-14.8 -14.9 -27.6 -27 -28.2 -27 -1 0 -1.3 6 -1.3 27 l0 27 -16 0 -16 0 0 -97.5 0 -97.5 -29.7 0.2 -29.8 0.3 0 120 0 120 119.5 0 119.5 0 0 -120 0 -120 -54.7 -0.3 -54.8 -0.2 0 -14.5 0 -14.5 70.5 0 70.5 0 0 150 0 150 -150.3 0 c-82.7 0 -150.7 -0.3 -151 -0.7z"/>
 </g>
</svg>