<?xml version="1.0" encoding="UTF-8"?>
<!DOCTYPE svg PUBLIC "-//W3C//DTD SVG 1.1//EN" "http://www.w3.org/Graphics/SVG/1.1/DTD/svg11.dtd">
<svg xmlns="http://www.w3.org/2000/svg" version="1.1" width="500px" height="500px" style="shape-rendering:geometricPrecision; text-rendering:geometricPrecision; image-rendering:optimizeQuality; fill-rule:evenodd; clip-rule:evenodd" xmlns:xlink="http://www.w3.org/1999/xlink">
<g><path style="opacity:0.004" fill="#fefffe" d="M 391.5,-0.5 C 391.833,-0.5 392.167,-0.5 392.5,-0.5C 392.315,0.170143 391.981,0.170143 391.5,-0.5 Z"/></g>
<g><path style="opacity:0.004" fill="#fefffe" d="M 346.5,7.5 C 347.833,8.16667 347.833,8.16667 346.5,7.5 Z"/></g>
<g><path style="opacity:0.004" fill="#fefffe" d="M 47.5,8.5 C 48.8333,9.16667 48.8333,9.16667 47.5,8.5 Z"/></g>
<g><path style="opacity:0.004" fill="#fefffe" d="M 97.5,9.5 C 98.8333,10.1667 98.8333,10.1667 97.5,9.5 Z"/></g>
<g><path style="opacity:0.004" fill="#fefffe" d="M 193.5,16.5 C 194.833,17.1667 194.833,17.1667 193.5,16.5 Z"/></g>
<g><path style="opacity:0.004" fill="#fefffe" d="M 375.5,16.5 C 376.833,17.1667 376.833,17.1667 375.5,16.5 Z"/></g>
<g><path style="opacity:0.004" fill="#fefffe" d="M 149.5,24.5 C 150.833,25.1667 150.833,25.1667 149.5,24.5 Z"/></g>
<g><path style="opacity:0.004" fill="#fefffe" d="M 230.5,34.5 C 231.833,35.1667 231.833,35.1667 230.5,34.5 Z"/></g>
<g><path style="opacity:0.004" fill="#fefffe" d="M 191.5,35.5 C 192.833,36.1667 192.833,36.1667 191.5,35.5 Z"/></g>
<g><path style="opacity:0.004" fill="#fefffe" d="M 88.5,42.5 C 89.8333,43.1667 89.8333,43.1667 88.5,42.5 Z"/></g>
<g><path style="opacity:0.004" fill="#fefffe" d="M 249.5,43.5 C 250.833,44.1667 250.833,44.1667 249.5,43.5 Z"/></g>
<g><path style="opacity:0.004" fill="#fefffe" d="M 219.5,55.5 C 220.833,56.1667 220.833,56.1667 219.5,55.5 Z"/></g>
<g><path style="opacity:0.004" fill="#fefffe" d="M 333.5,60.5 C 334.833,61.1667 334.833,61.1667 333.5,60.5 Z"/></g>
<g><path style="opacity:0.004" fill="#fefffe" d="M 444.5,60.5 C 445.833,61.1667 445.833,61.1667 444.5,60.5 Z"/></g>
<g><path style="opacity:0.004" fill="#fefffe" d="M 77.5,63.5 C 78.8333,64.1667 78.8333,64.1667 77.5,63.5 Z"/></g>
<g><path style="opacity:0.004" fill="#fefffe" d="M 31.5,68.5 C 32.8333,69.1667 32.8333,69.1667 31.5,68.5 Z"/></g>
<g><path style="opacity:0.004" fill="#fefffe" d="M 461.5,69.5 C 462.833,70.1667 462.833,70.1667 461.5,69.5 Z"/></g>
<g><path style="opacity:0.004" fill="#fefffe" d="M 3.5,70.5 C 4.83333,71.1667 4.83333,71.1667 3.5,70.5 Z"/></g>
<g><path style="opacity:0.004" fill="#fefffe" d="M 101.5,72.5 C 102.833,73.1667 102.833,73.1667 101.5,72.5 Z"/></g>
<g><path style="opacity:0.004" fill="#fefffe" d="M 45.5,76.5 C 46.8333,77.1667 46.8333,77.1667 45.5,76.5 Z"/></g>
<g><path style="opacity:0.004" fill="#fefffe" d="M 335.5,76.5 C 336.833,77.1667 336.833,77.1667 335.5,76.5 Z"/></g>
<g><path style="opacity:0.24" fill="#99cbfe" d="M 97.5,86.5 C 139.33,85.5013 181.33,85.168 223.5,85.5C 223.5,86.8333 223.5,88.1667 223.5,89.5C 223.167,89.5 222.833,89.5 222.5,89.5C 222.5,88.5 222.5,87.5 222.5,86.5C 181.167,86.5 139.833,86.5 98.5,86.5C 98.1667,86.5 97.8333,86.5 97.5,86.5 Z"/></g>
<g><path style="opacity:0.895" fill="#4e85d6" d="M 258.5,86.5 C 305.833,86.5 353.167,86.5 400.5,86.5C 400.5,87.8333 400.5,89.1667 400.5,90.5C 399.733,89.828 399.066,88.9947 398.5,88C 352.5,87.3333 306.5,87.3333 260.5,88C 259.514,97.7504 259.181,107.584 259.5,117.5C 295.671,117.168 331.671,117.502 367.5,118.5C 331.165,118.667 294.832,118.5 258.5,118C 257.282,107.559 257.282,97.0589 258.5,86.5 Z"/></g>
<g><path style="opacity:1" fill="#0178fc" d="M 221.5,210.5 C 221.5,211.5 221.5,212.5 221.5,213.5C 221.205,215.735 221.539,217.735 222.5,219.5C 226.693,219.638 229.027,217.638 229.5,213.5C 235.737,211.719 239.737,207.719 241.5,201.5C 245.167,199.833 247.833,197.167 249.5,193.5C 251.697,192.155 254.03,190.989 256.5,190C 257.986,187.525 259.319,185.025 260.5,182.5C 262.529,180.142 264.529,177.808 266.5,175.5C 269.767,173.573 272.767,171.239 275.5,168.5C 278.452,166.357 281.785,164.691 285.5,163.5C 296.151,162.334 306.818,162.168 317.5,163C 318.973,163.71 319.64,164.876 319.5,166.5C 318.167,166.5 316.833,166.5 315.5,166.5C 315.456,163.519 315.123,163.186 314.5,165.5C 314.919,166.672 315.585,167.672 316.5,168.5C 316.167,168.833 315.833,169.167 315.5,169.5C 311.498,166.657 310.832,167.157 313.5,171C 313.167,171.5 312.833,172 312.5,172.5C 311.549,171.674 310.549,171.508 309.5,172C 310.752,173.828 310.752,175.661 309.5,177.5C 309.167,178.5 308.5,179.167 307.5,179.5C 305.088,179.244 303.421,180.244 302.5,182.5C 301.201,181.91 300.368,180.91 300,179.5C 298.842,179.998 298.009,180.831 297.5,182C 298.885,183.597 299.551,185.43 299.5,187.5C 297.801,187.34 296.134,187.506 294.5,188C 295.337,189.011 295.67,190.178 295.5,191.5C 293.801,191.34 292.134,191.506 290.5,192C 291.902,193.342 291.569,194.176 289.5,194.5C 285.756,193.57 284.09,195.236 284.5,199.5C 283.5,199.5 282.5,199.5 281.5,199.5C 281.5,201.833 281.5,204.167 281.5,206.5C 278.937,206.731 277.27,208.065 276.5,210.5C 274.456,211.031 272.789,212.198 271.5,214C 270.207,214.49 268.873,214.657 267.5,214.5C 268.113,218.512 266.446,220.512 262.5,220.5C 262.5,222.167 262.5,223.833 262.5,225.5C 260.167,227.833 257.833,230.167 255.5,232.5C 248.927,234.122 247.927,237.455 252.5,242.5C 253.325,243.386 254.325,243.719 255.5,243.5C 258.167,244.833 260.167,246.833 261.5,249.5C 261.709,250.922 262.209,252.255 263,253.5C 266.037,256.039 268.87,258.706 271.5,261.5C 272.325,262.386 273.325,262.719 274.5,262.5C 274.833,262.5 275.167,262.5 275.5,262.5C 275.128,265.923 276.461,268.423 279.5,270C 277.561,270.908 276.561,272.408 276.5,274.5C 278.565,273.555 280.399,272.888 282,272.5C 283.506,274.174 285.339,275.174 287.5,275.5C 287.833,275.5 288.167,275.5 288.5,275.5C 289.406,278.436 290.072,281.436 290.5,284.5C 293.167,285.167 295.833,285.833 298.5,286.5C 299.778,286.782 300.778,287.449 301.5,288.5C 302.08,290.749 303.413,292.415 305.5,293.5C 310.807,297.806 315.807,302.473 320.5,307.5C 320.5,308.167 320.5,308.833 320.5,309.5C 313.699,310.831 306.533,311.497 299,311.5C 291.833,311.333 284.667,311.167 277.5,311C 276.211,309.198 274.544,308.031 272.5,307.5C 271.833,307.5 271.5,307.167 271.5,306.5C 270.644,303.542 270.477,300.542 271,297.5C 270.612,298.428 269.945,299.095 269,299.5C 266.693,297.561 264.86,295.228 263.5,292.5C 266.2,290.457 266.033,288.79 263,287.5C 260.008,290.036 257.008,290.036 254,287.5C 254.487,282.492 251.987,280.158 246.5,280.5C 248.325,273.772 245.992,271.438 239.5,273.5C 236.138,269.804 232.472,266.47 228.5,263.5C 226.225,262.889 224.559,261.555 223.5,259.5C 221.541,265.75 220.874,272.416 221.5,279.5C 220.506,289.653 220.172,299.986 220.5,310.5C 210.5,310.5 200.5,310.5 190.5,310.5C 190.667,246.166 190.5,181.832 190,117.5C 170.402,116.169 150.902,116.169 131.5,117.5C 130.833,117.5 130.167,117.5 129.5,117.5C 128.503,117.47 127.836,117.97 127.5,119C 128.144,196.532 128.811,274.032 129.5,351.5C 129.5,353.167 129.5,354.833 129.5,356.5C 131.969,357.317 134.635,357.817 137.5,358C 138.167,358.333 138.833,358.667 139.5,359C 135.782,360.489 135.782,361.322 139.5,361.5C 140.5,361.167 141.5,360.833 142.5,360.5C 142.291,359.914 141.957,359.414 141.5,359C 217.84,359.164 293.84,358.331 369.5,356.5C 369.833,276.998 369.499,197.665 368.5,118.5C 333.181,116.672 297.514,115.838 261.5,116C 260.167,107 260.167,98 261.5,89C 307.175,88.2366 352.841,88.4033 398.5,89.5C 398.5,188.5 398.5,287.5 398.5,386.5C 300.156,386.188 201.823,386.521 103.5,387.5C 102.432,386.566 101.099,386.232 99.5,386.5C 99.1672,287.332 99.5006,188.332 100.5,89.5C 140.023,88.4033 179.69,88.2366 219.5,89C 220.164,129.598 220.831,170.098 221.5,210.5 Z"/></g>
<g><path style="opacity:0.004" fill="#fefffe" d="M 55.5,91.5 C 56.8333,92.1667 56.8333,92.1667 55.5,91.5 Z"/></g>
<g><path style="opacity:0.004" fill="#fefffe" d="M 238.5,101.5 C 239.833,102.167 239.833,102.167 238.5,101.5 Z"/></g>
<g><path style="opacity:0.004" fill="#fefffe" d="M 91.5,107.5 C 92.8333,108.167 92.8333,108.167 91.5,107.5 Z"/></g>
<g><path style="opacity:0.004" fill="#fefffe" d="M 439.5,111.5 C 440.833,112.167 440.833,112.167 439.5,111.5 Z"/></g>
<g><path style="opacity:0.004" fill="#fefffe" d="M 416.5,119.5 C 417.833,120.167 417.833,120.167 416.5,119.5 Z"/></g>
<g><path style="opacity:0.004" fill="#fefffe" d="M 473.5,121.5 C 474.833,122.167 474.833,122.167 473.5,121.5 Z"/></g>
<g><path style="opacity:0.285" fill="#165195" d="M 222.5,89.5 C 222.833,89.5 223.167,89.5 223.5,89.5C 223.5,131.167 223.5,172.833 223.5,214.5C 222.549,215.919 222.216,217.585 222.5,219.5C 221.539,217.735 221.205,215.735 221.5,213.5C 222.499,172.337 222.832,131.003 222.5,89.5 Z"/></g>
<g><path style="opacity:0.004" fill="#fefffe" d="M 91.5,148.5 C 92.8333,149.167 92.8333,149.167 91.5,148.5 Z"/></g>
<g><path style="opacity:0.004" fill="#fefffe" d="M 284.5,156.5 C 285.833,157.167 285.833,157.167 284.5,156.5 Z"/></g>
<g><path style="opacity:0.004" fill="#fefffe" d="M 94.5,157.5 C 95.8333,158.167 95.8333,158.167 94.5,157.5 Z"/></g>
<g><path style="opacity:0.004" fill="#fefffe" d="M 288.5,157.5 C 289.833,158.167 289.833,158.167 288.5,157.5 Z"/></g>
<g><path style="opacity:0.004" fill="#fefffe" d="M 247.5,159.5 C 248.833,160.167 248.833,160.167 247.5,159.5 Z"/></g>
<g><path style="opacity:1" fill="#0874e8" d="M 129.5,117.5 C 129.5,118.5 129.5,119.5 129.5,120.5C 129.5,197.5 129.5,274.5 129.5,351.5C 128.811,274.032 128.144,196.532 127.5,119C 127.836,117.97 128.503,117.47 129.5,117.5 Z"/></g>
<g><path style="opacity:1" fill="#5384e1" d="M 320.5,167.5 C 317.138,171.196 313.472,174.53 309.5,177.5C 310.752,175.661 310.752,173.828 309.5,172C 310.549,171.508 311.549,171.674 312.5,172.5C 312.833,172 313.167,171.5 313.5,171C 310.832,167.157 311.498,166.657 315.5,169.5C 315.833,169.167 316.167,168.833 316.5,168.5C 315.585,167.672 314.919,166.672 314.5,165.5C 315.123,163.186 315.456,163.519 315.5,166.5C 316.833,166.5 318.167,166.5 319.5,166.5C 319.64,164.876 318.973,163.71 317.5,163C 306.818,162.168 296.151,162.334 285.5,163.5C 281.785,164.691 278.452,166.357 275.5,168.5C 275.5,168.167 275.5,167.833 275.5,167.5C 276.684,164.151 279.017,161.985 282.5,161C 296.167,160.333 309.833,160.333 323.5,161C 324.167,161.333 324.833,161.667 325.5,162C 323.627,163.704 321.96,165.537 320.5,167.5 Z"/></g>
<g><path style="opacity:0.004" fill="#fefffe" d="M 320.5,167.5 C 321.833,168.167 321.833,168.167 320.5,167.5 Z"/></g>
<g><path style="opacity:0.278" fill="#66a4e9" d="M 258.5,86.5 C 305.997,85.5012 353.664,85.1679 401.5,85.5C 401.833,186.668 401.499,287.668 400.5,388.5C 400.5,387.833 400.5,387.167 400.5,386.5C 400.5,287.833 400.5,189.167 400.5,90.5C 400.5,89.1667 400.5,87.8333 400.5,86.5C 353.167,86.5 305.833,86.5 258.5,86.5 Z"/></g>
<g><path style="opacity:0.302" fill="#8db1df" d="M 275.5,167.5 C 275.5,167.833 275.5,168.167 275.5,168.5C 272.767,171.239 269.767,173.573 266.5,175.5C 268.9,172.097 271.9,169.43 275.5,167.5 Z"/></g>
<g><path style="opacity:0.004" fill="#fefffe" d="M 57.5,174.5 C 58.8333,175.167 58.8333,175.167 57.5,174.5 Z"/></g>
<g><path style="opacity:1" fill="#0c75ea" d="M 400.5,90.5 C 400.5,189.167 400.5,287.833 400.5,386.5C 400.167,386.5 399.833,386.5 399.5,386.5C 399.167,386.5 398.833,386.5 398.5,386.5C 398.5,287.5 398.5,188.5 398.5,89.5C 352.841,88.4033 307.175,88.2366 261.5,89C 260.167,98 260.167,107 261.5,116C 297.514,115.838 333.181,116.672 368.5,118.5C 368.167,118.5 367.833,118.5 367.5,118.5C 331.671,117.502 295.671,117.168 259.5,117.5C 259.181,107.584 259.514,97.7504 260.5,88C 306.5,87.3333 352.5,87.3333 398.5,88C 399.066,88.9947 399.733,89.828 400.5,90.5 Z"/></g>
<g><path style="opacity:0.004" fill="#fefffe" d="M 346.5,178.5 C 347.833,179.167 347.833,179.167 346.5,178.5 Z"/></g>
<g><path style="opacity:0.242" fill="#62a0e4" d="M 97.5,86.5 C 97.8333,86.5 98.1667,86.5 98.5,86.5C 98.5,186.833 98.5,287.167 98.5,387.5C 100.167,387.5 101.833,387.5 103.5,387.5C 110.982,388.492 118.648,388.825 126.5,388.5C 116.698,389.683 107.031,389.683 97.5,388.5C 97.5,287.833 97.5,187.167 97.5,86.5 Z"/></g>
<g><path style="opacity:1" fill="#4d85e1" d="M 307.5,179.5 C 298.877,188.492 290.21,197.492 281.5,206.5C 281.5,204.167 281.5,201.833 281.5,199.5C 282.5,199.5 283.5,199.5 284.5,199.5C 284.09,195.236 285.756,193.57 289.5,194.5C 291.569,194.176 291.902,193.342 290.5,192C 292.134,191.506 293.801,191.34 295.5,191.5C 295.67,190.178 295.337,189.011 294.5,188C 296.134,187.506 297.801,187.34 299.5,187.5C 299.551,185.43 298.885,183.597 297.5,182C 298.009,180.831 298.842,179.998 300,179.5C 300.368,180.91 301.201,181.91 302.5,182.5C 303.421,180.244 305.088,179.244 307.5,179.5 Z"/></g>
<g><path style="opacity:0.004" fill="#fefffe" d="M 46.5,185.5 C 47.8333,186.167 47.8333,186.167 46.5,185.5 Z"/></g>
<g><path style="opacity:1" fill="#3d7ad6" d="M 260.5,182.5 C 259.319,185.025 257.986,187.525 256.5,190C 254.03,190.989 251.697,192.155 249.5,193.5C 252.833,189.5 256.5,185.833 260.5,182.5 Z"/></g>
<g><path style="opacity:0.667" fill="#5687cb" d="M 249.5,193.5 C 247.833,197.167 245.167,199.833 241.5,201.5C 243.833,198.5 246.5,195.833 249.5,193.5 Z"/></g>
<g><path style="opacity:0.004" fill="#fefffe" d="M 331.5,202.5 C 332.833,203.167 332.833,203.167 331.5,202.5 Z"/></g>
<g><path style="opacity:0.837" fill="#368ecf" d="M 368.5,118.5 C 369.499,197.665 369.833,276.998 369.5,356.5C 290.246,356.555 210.912,356.555 131.5,356.5C 131.5,356.167 131.5,355.833 131.5,355.5C 210.5,355.5 289.5,355.5 368.5,355.5C 367.253,276.535 367.253,197.535 368.5,118.5 Z"/></g>
<g><path style="opacity:1" fill="#4287d0" d="M 241.5,201.5 C 239.737,207.719 235.737,211.719 229.5,213.5C 233.167,209.167 237.167,205.167 241.5,201.5 Z"/></g>
<g><path style="opacity:0.016" fill="#90a8e4" d="M 281.5,206.5 C 280.127,208.207 278.461,209.54 276.5,210.5C 277.27,208.065 278.937,206.731 281.5,206.5 Z"/></g>
<g><path style="opacity:1" fill="#5788d9" d="M 276.5,210.5 C 272.305,215.933 267.638,220.933 262.5,225.5C 262.5,223.833 262.5,222.167 262.5,220.5C 266.446,220.512 268.113,218.512 267.5,214.5C 268.873,214.657 270.207,214.49 271.5,214C 272.789,212.198 274.456,211.031 276.5,210.5 Z"/></g>
<g><path style="opacity:0.992" fill="#2773db" d="M 131.5,117.5 C 150.902,116.169 170.402,116.169 190,117.5C 190.5,181.832 190.667,246.166 190.5,310.5C 200.5,310.5 210.5,310.5 220.5,310.5C 220.172,299.986 220.506,289.653 221.5,279.5C 221.5,290.167 221.5,300.833 221.5,311.5C 219.901,311.232 218.568,311.566 217.5,312.5C 208.167,312.5 198.833,312.5 189.5,312.5C 189.832,264.997 189.499,217.664 188.5,170.5C 188.5,153.167 188.5,135.833 188.5,118.5C 169.674,117.503 150.674,117.17 131.5,117.5 Z"/></g>
<g><path style="opacity:1" fill="#116fd5" d="M 98.5,86.5 C 139.833,86.5 181.167,86.5 222.5,86.5C 222.5,87.5 222.5,88.5 222.5,89.5C 222.832,131.003 222.499,172.337 221.5,213.5C 221.5,212.5 221.5,211.5 221.5,210.5C 221.667,169.832 221.5,129.165 221,88.5C 181.238,87.337 141.404,87.1703 101.5,88C 100.944,88.3826 100.611,88.8826 100.5,89.5C 99.5006,188.332 99.1672,287.332 99.5,386.5C 101.099,386.232 102.432,386.566 103.5,387.5C 101.833,387.5 100.167,387.5 98.5,387.5C 98.5,287.167 98.5,186.833 98.5,86.5 Z"/></g>
<g><path style="opacity:0.004" fill="#fefffe" d="M 185.5,195.5 C 186.833,196.167 186.833,196.167 185.5,195.5 Z"/></g>
<g><path style="opacity:0.278" fill="#89b9f0" d="M 129.5,117.5 C 130.167,117.5 130.833,117.5 131.5,117.5C 150.674,117.17 169.674,117.503 188.5,118.5C 169.164,118.333 149.83,118.5 130.5,119C 131.337,120.011 131.67,121.178 131.5,122.5C 130.833,121.833 130.167,121.167 129.5,120.5C 129.5,119.5 129.5,118.5 129.5,117.5 Z"/></g>
<g><path style="opacity:1" fill="#0b77ee" d="M 221.5,210.5 C 220.831,170.098 220.164,129.598 219.5,89C 179.69,88.2366 140.023,88.4033 100.5,89.5C 100.611,88.8826 100.944,88.3826 101.5,88C 141.404,87.1703 181.238,87.337 221,88.5C 221.5,129.165 221.667,169.832 221.5,210.5 Z"/></g>
<g><path style="opacity:0.945" fill="#5a8ed6" d="M 229.5,213.5 C 229.027,217.638 226.693,219.638 222.5,219.5C 222.216,217.585 222.549,215.919 223.5,214.5C 223.343,215.873 223.51,217.207 224,218.5C 225.704,216.627 227.537,214.96 229.5,213.5 Z"/></g>
<g><path style="opacity:0.004" fill="#fefffe" d="M 41.5,220.5 C 42.8333,221.167 42.8333,221.167 41.5,220.5 Z"/></g>
<g><path style="opacity:0.408" fill="#5b8cd6" d="M 255.5,232.5 C 253.841,233.834 252.508,235.501 251.5,237.5C 252.885,239.536 254.218,241.536 255.5,243.5C 254.325,243.719 253.325,243.386 252.5,242.5C 247.927,237.455 248.927,234.122 255.5,232.5 Z"/></g>
<g><path style="opacity:0.004" fill="#fefffe" d="M 254.5,238.5 C 255.833,239.167 255.833,239.167 254.5,238.5 Z"/></g>
<g><path style="opacity:0.744" fill="#40a4e2" d="M 129.5,120.5 C 130.167,121.167 130.833,121.833 131.5,122.5C 131.365,200.223 131.365,277.89 131.5,355.5C 131.5,355.833 131.5,356.167 131.5,356.5C 130.833,356.5 130.167,356.5 129.5,356.5C 129.5,354.833 129.5,353.167 129.5,351.5C 129.5,274.5 129.5,197.5 129.5,120.5 Z"/></g>
<g><path style="opacity:0.517" fill="#6699d4" d="M 188.5,170.5 C 189.499,217.664 189.832,264.997 189.5,312.5C 198.833,312.5 208.167,312.5 217.5,312.5C 219.886,312.741 221.886,312.075 223.5,310.5C 223.5,311.5 223.5,312.5 223.5,313.5C 211.833,313.5 200.167,313.5 188.5,313.5C 188.5,265.833 188.5,218.167 188.5,170.5 Z"/></g>
<g><path style="opacity:0.004" fill="#fefffe" d="M 344.5,250.5 C 345.833,251.167 345.833,251.167 344.5,250.5 Z"/></g>
<g><path style="opacity:0.82" fill="#5886d8" d="M 261.5,249.5 C 266.521,253.188 270.854,257.521 274.5,262.5C 273.325,262.719 272.325,262.386 271.5,261.5C 268.87,258.706 266.037,256.039 263,253.5C 262.209,252.255 261.709,250.922 261.5,249.5 Z"/></g>
<g><path style="opacity:0.004" fill="#fefffe" d="M 149.5,261.5 C 150.833,262.167 150.833,262.167 149.5,261.5 Z"/></g>
<g><path style="opacity:0.941" fill="#5980cc" d="M 228.5,263.5 C 232.472,266.47 236.138,269.804 239.5,273.5C 239.5,273.833 239.5,274.167 239.5,274.5C 238.761,274.631 238.094,274.464 237.5,274C 233.974,270.915 230.974,267.415 228.5,263.5 Z"/></g>
<g><path style="opacity:1" fill="#4181e7" d="M 275.5,262.5 C 279.862,266.527 283.862,270.86 287.5,275.5C 285.339,275.174 283.506,274.174 282,272.5C 280.399,272.888 278.565,273.555 276.5,274.5C 276.561,272.408 277.561,270.908 279.5,270C 276.461,268.423 275.128,265.923 275.5,262.5 Z"/></g>
<g><path style="opacity:0.004" fill="#fefffe" d="M 38.5,281.5 C 39.8333,282.167 39.8333,282.167 38.5,281.5 Z"/></g>
<g><path style="opacity:0.004" fill="#fefffe" d="M 312.5,281.5 C 313.833,282.167 313.833,282.167 312.5,281.5 Z"/></g>
<g><path style="opacity:1" fill="#4680e3" d="M 288.5,275.5 C 292.168,278.836 295.501,282.502 298.5,286.5C 295.833,285.833 293.167,285.167 290.5,284.5C 290.072,281.436 289.406,278.436 288.5,275.5 Z"/></g>
<g><path style="opacity:0.004" fill="#fefffe" d="M 236.5,288.5 C 237.833,289.167 237.833,289.167 236.5,288.5 Z"/></g>
<g><path style="opacity:1" fill="#317ae9" d="M 271.5,306.5 C 265.37,301.206 259.37,295.706 253.5,290C 248.576,284.917 243.909,279.75 239.5,274.5C 239.5,274.167 239.5,273.833 239.5,273.5C 245.992,271.438 248.325,273.772 246.5,280.5C 251.987,280.158 254.487,282.492 254,287.5C 257.008,290.036 260.008,290.036 263,287.5C 266.033,288.79 266.2,290.457 263.5,292.5C 264.86,295.228 266.693,297.561 269,299.5C 269.945,299.095 270.612,298.428 271,297.5C 270.477,300.542 270.644,303.542 271.5,306.5 Z"/></g>
<g><path style="opacity:0.267" fill="#b0caed" d="M 301.5,288.5 C 303.587,289.585 304.92,291.251 305.5,293.5C 303.413,292.415 302.08,290.749 301.5,288.5 Z"/></g>
<g><path style="opacity:0.004" fill="#fefffe" d="M 11.5,294.5 C 12.8333,295.167 12.8333,295.167 11.5,294.5 Z"/></g>
<g><path style="opacity:0.004" fill="#fefffe" d="M 79.5,296.5 C 80.8333,297.167 80.8333,297.167 79.5,296.5 Z"/></g>
<g><path style="opacity:0.004" fill="#fefffe" d="M 471.5,296.5 C 472.833,297.167 472.833,297.167 471.5,296.5 Z"/></g>
<g><path style="opacity:0.957" fill="#4376c4" d="M 223.5,259.5 C 223.5,276.5 223.5,293.5 223.5,310.5C 221.886,312.075 219.886,312.741 217.5,312.5C 218.568,311.566 219.901,311.232 221.5,311.5C 221.5,300.833 221.5,290.167 221.5,279.5C 220.874,272.416 221.541,265.75 223.5,259.5 Z"/></g>
<g><path style="opacity:0.004" fill="#fefffe" d="M 95.5,306.5 C 96.8333,307.167 96.8333,307.167 95.5,306.5 Z"/></g>
<g><path style="opacity:0.867" fill="#1264c5" d="M 272.5,307.5 C 274.544,308.031 276.211,309.198 277.5,311C 284.667,311.167 291.833,311.333 299,311.5C 306.533,311.497 313.699,310.831 320.5,309.5C 321.404,310.209 321.737,311.209 321.5,312.5C 306.5,312.5 291.5,312.5 276.5,312.5C 275.167,310.833 273.833,309.167 272.5,307.5 Z"/></g>
<g><path style="opacity:0.004" fill="#fefffe" d="M 254.5,312.5 C 255.833,313.167 255.833,313.167 254.5,312.5 Z"/></g>
<g><path style="opacity:0.133" fill="#4e88c6" d="M 320.5,307.5 C 322.63,308.964 323.963,310.964 324.5,313.5C 308.325,313.83 292.325,313.496 276.5,312.5C 291.5,312.5 306.5,312.5 321.5,312.5C 321.737,311.209 321.404,310.209 320.5,309.5C 320.5,308.833 320.5,308.167 320.5,307.5 Z"/></g>
<g><path style="opacity:0.004" fill="#fefffe" d="M 403.5,319.5 C 404.833,320.167 404.833,320.167 403.5,319.5 Z"/></g>
<g><path style="opacity:0.004" fill="#fefffe" d="M 495.5,319.5 C 496.833,320.167 496.833,320.167 495.5,319.5 Z"/></g>
<g><path style="opacity:0.004" fill="#fefffe" d="M 468.5,337.5 C 469.833,338.167 469.833,338.167 468.5,337.5 Z"/></g>
<g><path style="opacity:0.004" fill="#fefffe" d="M 415.5,350.5 C 416.833,351.167 416.833,351.167 415.5,350.5 Z"/></g>
<g><path style="opacity:0.004" fill="#fefffe" d="M 1.5,357.5 C 2.83333,358.167 2.83333,358.167 1.5,357.5 Z"/></g>
<g><path style="opacity:1" fill="#0871e0" d="M 129.5,356.5 C 130.167,356.5 130.833,356.5 131.5,356.5C 210.912,356.555 290.246,356.555 369.5,356.5C 293.84,358.331 217.84,359.164 141.5,359C 141.957,359.414 142.291,359.914 142.5,360.5C 141.5,360.833 140.5,361.167 139.5,361.5C 135.782,361.322 135.782,360.489 139.5,359C 138.833,358.667 138.167,358.333 137.5,358C 134.635,357.817 131.969,357.317 129.5,356.5 Z"/></g>
<g><path style="opacity:0.004" fill="#fefffe" d="M 54.5,373.5 C 55.8333,374.167 55.8333,374.167 54.5,373.5 Z"/></g>
<g><path style="opacity:0.004" fill="#fefffe" d="M 74.5,380.5 C 75.8333,381.167 75.8333,381.167 74.5,380.5 Z"/></g>
<g><path style="opacity:1" fill="#1172df" d="M 398.5,386.5 C 398.833,386.5 399.167,386.5 399.5,386.5C 379.833,387.167 360.167,387.833 340.5,388.5C 338.5,388.5 336.5,388.5 334.5,388.5C 271.167,387.167 207.833,387.167 144.5,388.5C 138.5,388.5 132.5,388.5 126.5,388.5C 118.648,388.825 110.982,388.492 103.5,387.5C 201.823,386.521 300.156,386.188 398.5,386.5 Z"/></g>
<g><path style="opacity:0.588" fill="#518dc9" d="M 144.5,388.5 C 207.833,387.167 271.167,387.167 334.5,388.5C 271.306,388.788 207.973,388.788 144.5,388.5 Z"/></g>
<g><path style="opacity:0.592" fill="#6386cc" d="M 399.5,386.5 C 399.833,386.5 400.167,386.5 400.5,386.5C 400.5,387.167 400.5,387.833 400.5,388.5C 380.766,388.873 360.766,388.873 340.5,388.5C 360.167,387.833 379.833,387.167 399.5,386.5 Z"/></g>
<g><path style="opacity:0.004" fill="#fefffe" d="M 255.5,396.5 C 256.833,397.167 256.833,397.167 255.5,396.5 Z"/></g>
<g><path style="opacity:0.004" fill="#fefffe" d="M 492.5,408.5 C 493.833,409.167 493.833,409.167 492.5,408.5 Z"/></g>
<g><path style="opacity:0.004" fill="#fefffe" d="M 335.5,418.5 C 336.833,419.167 336.833,419.167 335.5,418.5 Z"/></g>
<g><path style="opacity:0.004" fill="#fefffe" d="M 184.5,420.5 C 185.833,421.167 185.833,421.167 184.5,420.5 Z"/></g>
<g><path style="opacity:0.004" fill="#fefffe" d="M 284.5,421.5 C 285.833,422.167 285.833,422.167 284.5,421.5 Z"/></g>
<g><path style="opacity:0.004" fill="#fefffe" d="M 438.5,422.5 C 439.833,423.167 439.833,423.167 438.5,422.5 Z"/></g>
<g><path style="opacity:0.004" fill="#fefffe" d="M 200.5,425.5 C 201.833,426.167 201.833,426.167 200.5,425.5 Z"/></g>
<g><path style="opacity:0.004" fill="#fefffe" d="M 102.5,447.5 C 103.833,448.167 103.833,448.167 102.5,447.5 Z"/></g>
<g><path style="opacity:0.004" fill="#fefffe" d="M 27.5,448.5 C 28.8333,449.167 28.8333,449.167 27.5,448.5 Z"/></g>
<g><path style="opacity:0.004" fill="#fefffe" d="M 345.5,460.5 C 346.833,461.167 346.833,461.167 345.5,460.5 Z"/></g>
<g><path style="opacity:0.004" fill="#fefffe" d="M 344.5,468.5 C 345.833,469.167 345.833,469.167 344.5,468.5 Z"/></g>
<g><path style="opacity:0.004" fill="#fefffe" d="M 142.5,469.5 C 143.833,470.167 143.833,470.167 142.5,469.5 Z"/></g>
<g><path style="opacity:0.004" fill="#fefffe" d="M 420.5,470.5 C 421.833,471.167 421.833,471.167 420.5,470.5 Z"/></g>
<g><path style="opacity:0.004" fill="#fefffe" d="M 263.5,473.5 C 264.833,474.167 264.833,474.167 263.5,473.5 Z"/></g>
<g><path style="opacity:0.004" fill="#fefffe" d="M 422.5,479.5 C 423.833,480.167 423.833,480.167 422.5,479.5 Z"/></g>
</svg>
